<svg width="171" height="42" viewBox="0 0 171 42" fill="none" xmlns="http://www.w3.org/2000/svg">
<g clip-path="url(#clip0_2551_617)">
<rect x="129" width="42" height="42" fill="#F9EFCF"/>
<path d="M150.003 36.8215C145.698 36.8215 145.191 36.7988 143.511 36.7253C142.201 36.6822 140.908 36.4159 139.687 35.9378C138.643 35.5313 137.694 34.9121 136.902 34.1195C136.11 33.3269 135.491 32.3781 135.085 31.3335C134.625 30.1086 134.377 28.8144 134.351 27.5063C134.253 25.8298 134.253 25.2803 134.253 21.0085C134.253 16.6913 134.276 16.1873 134.351 14.516C134.378 13.2097 134.626 11.9173 135.085 10.694C135.49 9.64813 136.11 8.69831 136.903 7.90522C137.696 7.11214 138.646 6.49324 139.692 6.08804C140.915 5.6264 142.208 5.3778 143.514 5.35304C145.186 5.25854 145.735 5.25854 150.003 5.25854C154.343 5.25854 154.842 5.28129 156.496 5.35304C157.805 5.37754 159.103 5.62604 160.328 6.08804C161.374 6.49371 162.324 7.11278 163.117 7.9058C163.911 8.69882 164.53 9.64841 164.936 10.694C165.403 11.9365 165.654 13.249 165.673 14.5738C165.771 16.2503 165.771 16.798 165.771 21.068C165.771 25.338 165.746 25.898 165.673 27.5553C165.647 28.8646 165.398 30.16 164.938 31.386C164.531 32.4314 163.911 33.3806 163.117 34.1735C162.324 34.9665 161.374 35.5857 160.328 35.992C159.103 36.4505 157.81 36.699 156.503 36.7253C154.832 36.8215 154.284 36.8215 150.003 36.8215ZM149.944 8.02879C145.663 8.02879 145.219 8.04979 143.548 8.12504C142.55 8.1381 141.561 8.32218 140.625 8.66929C139.943 8.93095 139.322 9.33274 138.804 9.84876C138.287 10.3648 137.883 10.9836 137.619 11.6653C137.269 12.6103 137.085 13.6095 137.074 14.6175C136.982 16.3133 136.982 16.7578 136.982 21.0085C136.982 25.2085 136.997 25.7178 137.074 27.403C137.09 28.4005 137.274 29.3893 137.619 30.3255C138.154 31.7028 139.246 32.7913 140.627 33.3198C141.562 33.6691 142.55 33.8532 143.548 33.864C145.242 33.962 145.688 33.962 149.944 33.962C154.237 33.962 154.681 33.941 156.338 33.864C157.337 33.852 158.325 33.6679 159.261 33.3198C159.94 33.0561 160.557 32.6541 161.072 32.1392C161.587 31.6243 161.989 31.0079 162.253 30.329C162.603 29.384 162.787 28.383 162.798 27.375H162.817C162.892 25.702 162.892 25.2558 162.892 20.9805C162.892 16.7053 162.873 16.2555 162.798 14.5843C162.782 13.5876 162.598 12.6007 162.253 11.6653C161.99 10.9855 161.588 10.368 161.073 9.85221C160.557 9.33639 159.94 8.93353 159.261 8.66929C158.325 8.31929 157.336 8.1373 156.338 8.12504C154.646 8.0288 154.203 8.02879 149.944 8.02879ZM150.003 29.0918C148.403 29.0928 146.839 28.6193 145.507 27.731C144.176 26.8428 143.139 25.5797 142.525 24.1016C141.912 22.6235 141.751 20.9967 142.063 19.4271C142.374 17.8574 143.144 16.4154 144.275 15.2834C145.406 14.1513 146.847 13.3801 148.417 13.0673C149.986 12.7546 151.613 12.9142 153.092 13.5261C154.57 14.138 155.834 15.1747 156.724 16.505C157.613 17.8353 158.088 19.3995 158.088 20.9998C158.086 23.1439 157.233 25.1994 155.718 26.7162C154.202 28.2329 152.147 29.0872 150.003 29.0918ZM150.003 15.7463C148.965 15.7463 147.95 16.0542 147.087 16.6311C146.223 17.208 145.55 18.0279 145.153 18.9872C144.756 19.9465 144.652 21.0021 144.854 22.0205C145.057 23.0389 145.557 23.9744 146.291 24.7086C147.025 25.4428 147.961 25.9428 148.979 26.1454C149.998 26.348 151.053 26.244 152.013 25.8467C152.972 25.4493 153.792 24.7764 154.369 23.913C154.946 23.0497 155.253 22.0346 155.253 20.9963C155.25 19.6049 154.696 18.2714 153.712 17.2876C152.728 16.3037 151.395 15.7495 150.003 15.7463ZM158.403 14.4985C158.156 14.4976 157.911 14.4479 157.682 14.3523C157.453 14.2566 157.246 14.1169 157.072 13.9411C156.719 13.586 156.522 13.1054 156.524 12.605C156.526 12.1047 156.726 11.6256 157.081 11.2731C157.437 10.9207 157.917 10.7237 158.417 10.7255C158.918 10.7274 159.397 10.9279 159.749 11.283C160.102 11.6381 160.299 12.1187 160.297 12.619C160.295 13.1194 160.095 13.5985 159.739 13.951C159.384 14.3034 158.904 14.5004 158.403 14.4985Z" fill="#F38281"/>
</g>
<g clip-path="url(#clip1_2551_617)">
<rect x="86" width="42" height="42" fill="#F9EFCF"/>
<path d="M104.673 26.4197C103.787 31.1902 102.709 35.7647 99.51 38.1535C98.5248 30.9435 100.961 25.5272 102.091 19.7785C100.163 16.436 102.324 9.70721 106.391 11.3645C111.396 13.405 102.056 23.793 108.327 25.0915C114.873 26.446 117.547 13.3962 113.487 9.15071C107.621 3.02396 96.4125 9.01246 97.7915 17.7852C98.1275 19.9307 100.278 20.5817 98.6508 23.5427C94.897 22.6835 93.777 19.635 93.9223 15.5697C94.1533 8.91971 99.727 4.26121 105.317 3.61721C112.387 2.80171 119.021 6.28946 119.936 13.1372C120.969 20.8652 116.746 29.2372 109.188 28.6335C107.138 28.4707 106.277 27.426 104.673 26.4197Z" fill="#F38281"/>
</g>
<g clip-path="url(#clip2_2551_617)">
<rect x="43" width="42" height="42" fill="#F9EFCF"/>
<path d="M77.9913 11.704C79.56 10.7661 80.7338 9.2894 81.2935 7.54948C79.8194 8.42417 78.2066 9.0403 76.5248 9.37123C75.3905 8.17135 73.893 7.37784 72.2632 7.11304C70.6334 6.84823 68.9618 7.12683 67.506 7.90588C66.0502 8.68493 64.891 9.92119 64.2071 11.4241C63.5233 12.927 63.3527 14.6131 63.7218 16.2225C60.7361 16.0726 57.8152 15.2965 55.1489 13.9447C52.4826 12.5928 50.1303 10.6953 48.2448 8.37548C47.2859 10.0294 46.9925 11.9863 47.4241 13.8487C47.8558 15.7112 48.9801 17.3395 50.5688 18.403C49.3765 18.3647 48.2107 18.0418 47.1685 17.4615V17.556C47.1689 19.2902 47.769 20.9709 48.8672 22.3131C49.9654 23.6553 51.494 24.5763 53.1938 24.92C52.0879 25.2209 50.9279 25.2652 49.8023 25.0495C50.2831 26.541 51.2175 27.8453 52.4752 28.7802C53.733 29.7151 55.2512 30.234 56.818 30.2645C54.1577 32.3525 50.8724 33.4848 47.4905 33.4792C46.8903 33.4792 46.2918 33.4442 45.6968 33.376C49.131 35.5827 53.1279 36.754 57.21 36.75C60.0216 36.7693 62.809 36.2297 65.4102 35.1626C68.0115 34.0956 70.3748 32.5222 72.3628 30.534C74.3508 28.5458 75.924 26.1824 76.9909 23.581C78.0577 20.9797 78.5971 18.1923 78.5775 15.3807C78.5775 15.0552 78.5705 14.7315 78.5548 14.4095C80.0256 13.3466 81.295 12.0298 82.3033 10.521C80.933 11.1283 79.4796 11.5271 77.9913 11.704Z" fill="#F38281"/>
</g>
<g clip-path="url(#clip3_2551_617)">
<rect width="42" height="42" fill="#F38281"/>
<path d="M23.4448 36.7448V22.4018H28.2836L29.0028 16.7861H23.4448V13.2091C23.4448 11.5886 23.8963 10.4791 26.2221 10.4791H29.1691V5.4723C27.7352 5.31864 26.2939 5.24444 24.8518 5.25005C20.5748 5.25005 17.6383 7.86105 17.6383 12.6543V16.7756H12.8311V22.3913H17.6488V36.7448H23.4448Z" fill="white"/>
</g>
<defs>
<clipPath id="clip0_2551_617">
<rect width="42" height="42" fill="white" transform="translate(129)"/>
</clipPath>
<clipPath id="clip1_2551_617">
<rect width="42" height="42" fill="white" transform="translate(86)"/>
</clipPath>
<clipPath id="clip2_2551_617">
<rect width="42" height="42" fill="white" transform="translate(43)"/>
</clipPath>
<clipPath id="clip3_2551_617">
<rect width="42" height="42" fill="white"/>
</clipPath>
</defs>
</svg>
