<svg width="32" height="38" viewBox="0 0 32 38" fill="none" xmlns="http://www.w3.org/2000/svg">
<path d="M16.4167 19C14.6037 19 12.8314 18.4623 11.3239 17.4551C9.81649 16.4479 8.64158 15.0162 7.94778 13.3412C7.25397 11.6662 7.07244 9.82313 7.42614 8.04497C7.77984 6.26681 8.65288 4.63347 9.93486 3.35148C11.2168 2.0695 12.8502 1.19646 14.6283 0.842765C16.4065 0.489067 18.2496 0.670598 19.9246 1.3644C21.5996 2.0582 23.0312 3.23312 24.0385 4.74057C25.0457 6.24802 25.5833 8.0203 25.5833 9.8333C25.5789 12.2631 24.6117 14.5921 22.8936 16.3102C21.1755 18.0284 18.8465 18.9956 16.4167 19ZM16.4167 2.3333C14.9333 2.3333 13.4833 2.77316 12.2499 3.59727C11.0165 4.42139 10.0552 5.59272 9.48757 6.96317C8.91992 8.33362 8.77139 9.84162 9.06078 11.2965C9.35017 12.7513 10.0645 14.0877 11.1134 15.1366C12.1623 16.1855 13.4986 16.8998 14.9535 17.1892C16.4083 17.4786 17.9164 17.3301 19.2868 16.7624C20.6572 16.1947 21.8286 15.2334 22.6527 14.0001C23.4768 12.7667 23.9167 11.3167 23.9167 9.8333C23.9123 7.84553 23.1207 5.94043 21.7151 4.53486C20.3095 3.12929 18.4044 2.3377 16.4167 2.3333Z" fill="white"/>
<path d="M1.41659 32.3333C1.19557 32.3333 0.98361 32.2455 0.82733 32.0892C0.671049 31.9329 0.583252 31.7209 0.583252 31.4999C0.587663 27.744 2.08163 24.1433 4.73744 21.4874C7.39325 18.8316 10.994 17.3377 14.7499 17.3333H18.0833C18.3043 17.3333 18.5162 17.421 18.6725 17.5773C18.8288 17.7336 18.9166 17.9456 18.9166 18.1666C18.9166 18.3876 18.8288 18.5996 18.6725 18.7558C18.5162 18.9121 18.3043 18.9999 18.0833 18.9999H14.7499C11.4347 18.9999 8.25529 20.3169 5.91108 22.6611C3.56688 25.0053 2.24992 28.1847 2.24992 31.4999C2.24992 31.7209 2.16212 31.9329 2.00584 32.0892C1.84956 32.2455 1.6376 32.3333 1.41659 32.3333Z" fill="white"/>
<path d="M23.9166 37.3333C23.6956 37.3333 23.4836 37.2455 23.3273 37.0892C23.171 36.9329 23.0833 36.7209 23.0833 36.4999V23.1666C23.0833 22.9456 23.171 22.7336 23.3273 22.5773C23.4836 22.421 23.6956 22.3333 23.9166 22.3333C24.1376 22.3333 24.3496 22.421 24.5058 22.5773C24.6621 22.7336 24.7499 22.9456 24.7499 23.1666V36.4999C24.7499 36.7209 24.6621 36.9329 24.5058 37.0892C24.3496 37.2455 24.1376 37.3333 23.9166 37.3333Z" fill="white"/>
<path d="M30.5832 30.6667H17.2498C17.0288 30.6667 16.8169 30.5789 16.6606 30.4226C16.5043 30.2663 16.4165 30.0543 16.4165 29.8333C16.4165 29.6123 16.5043 29.4004 16.6606 29.2441C16.8169 29.0878 17.0288 29 17.2498 29H30.5832C30.8042 29 31.0161 29.0878 31.1724 29.2441C31.3287 29.4004 31.4165 29.6123 31.4165 29.8333C31.4165 30.0543 31.3287 30.2663 31.1724 30.4226C31.0161 30.5789 30.8042 30.6667 30.5832 30.6667Z" fill="white"/>
</svg>
